<?xml version="1.0" encoding="UTF-8"?>
<svg xmlns="http://www.w3.org/2000/svg" id="Layer_2" data-name="Layer 2" viewBox="0 0 472.1 65.6">
  <defs>
    <style>
      .cls-1 {
        fill: #202945;
      }

      .cls-1, .cls-2 {
        stroke-width: 0px;
      }

      .cls-2 {
        fill: #d50037;
      }
    </style>
  </defs>
  <g id="Layer_1-2" data-name="Layer 1">
    <g>
      <g>
        <path class="cls-2" d="m65.08,48.81c0,8.99-7.28,16.27-16.27,16.27s-16.27-7.28-16.27-16.27,7.28-16.27,16.27-16.27,16.27,7.28,16.27,16.27"></path>
        <path class="cls-2" d="m65.08,16.27c0,8.99-7.28,16.27-16.27,16.27s-16.27-7.28-16.27-16.27S39.83,0,48.81,0s16.27,7.28,16.27,16.27"></path>
        <path class="cls-2" d="m32.54,16.27C32.54,7.28,25.26,0,16.27,0S0,7.28,0,16.27v32.54c0,8.99,7.28,16.27,16.27,16.27s16.27-7.28,16.27-16.27V16.27Z"></path>
        <path class="cls-1" d="m81.45,12.53h18.89c2.56,0,4.81.48,6.74,1.45,1.94.97,3.42,2.28,4.45,3.93,1.03,1.65,1.54,3.48,1.54,5.49,0,1.86-.44,3.6-1.31,5.2-.87,1.61-2.04,2.9-3.52,3.87,2.21.97,3.86,2.34,4.94,4.1,1.08,1.76,1.63,3.67,1.63,5.73s-.52,3.9-1.57,5.55c-1.05,1.65-2.55,2.96-4.51,3.92-1.96.97-4.27,1.45-6.95,1.45h-20.35V12.53Zm18.6,16.92c1.4,0,2.53-.44,3.4-1.34.87-.89,1.31-1.96,1.31-3.2s-.44-2.31-1.31-3.2c-.87-.89-2.01-1.34-3.4-1.34h-10.17v9.07h10.17Zm1.16,15.93c1.4,0,2.53-.43,3.4-1.28.87-.85,1.31-1.9,1.31-3.14s-.44-2.3-1.31-3.17c-.87-.87-2.01-1.31-3.4-1.31h-11.34v8.9h11.34Z"></path>
        <polygon class="cls-1" points="118.78 12.53 148.25 12.53 148.25 20.61 127.5 20.61 127.5 28.93 145.93 28.93 145.93 36.83 127.5 36.83 127.5 45.15 148.25 45.15 148.25 53.23 118.78 53.23 118.78 12.53"></polygon>
        <polygon class="cls-1" points="165.88 40.73 152.04 12.53 161.35 12.53 170.18 30.85 179.02 12.53 188.32 12.53 174.66 40.5 174.66 53.23 165.88 53.23 165.88 40.73"></polygon>
        <path class="cls-1" d="m207.15,53.69c-3.76,0-7.23-.93-10.41-2.79-3.18-1.86-5.71-4.38-7.59-7.56-1.88-3.18-2.82-6.65-2.82-10.41s.94-7.23,2.82-10.41c1.88-3.18,4.41-5.71,7.59-7.59,3.18-1.88,6.65-2.82,10.41-2.82s7.23.94,10.41,2.82c3.18,1.88,5.71,4.41,7.59,7.59,1.88,3.18,2.82,6.65,2.82,10.41s-.93,7.23-2.79,10.41c-1.86,3.18-4.39,5.7-7.59,7.56-3.2,1.86-6.68,2.79-10.44,2.79m0-8.14c2.29,0,4.35-.56,6.19-1.69,1.84-1.12,3.29-2.65,4.33-4.59,1.05-1.94,1.57-4.05,1.57-6.34s-.52-4.4-1.57-6.34c-1.05-1.94-2.49-3.48-4.33-4.62-1.84-1.14-3.91-1.72-6.19-1.72s-4.3.57-6.16,1.72c-1.86,1.14-3.31,2.68-4.36,4.62-1.05,1.94-1.57,4.05-1.57,6.34s.52,4.4,1.57,6.34c1.05,1.94,2.49,3.47,4.33,4.59,1.84,1.12,3.9,1.69,6.19,1.69"></path>
        <polygon class="cls-1" points="232.09 12.53 246.04 12.53 259.76 44.86 259.71 12.53 268.25 12.53 268.25 53.23 254.71 53.23 240.64 19.86 240.64 53.23 232.09 53.23 232.09 12.53"></polygon>
      </g>
      <g>
        <path class="cls-1" d="m282.27,53.23V12h11.6l11.54,36.69,11.6-36.69h11.66v41.23h-6.77V17.72l-11.19,35.52h-10.6l-11.07-35.28v35.28h-6.77Z"></path>
        <path class="cls-1" d="m350.18,53.7c-4.44,0-8.22-1.59-11.34-4.77-3.12-3.18-4.68-6.97-4.68-11.37s1.56-8.23,4.68-11.37c3.12-3.14,6.9-4.71,11.34-4.71s8.22,1.58,11.34,4.74c3.12,3.16,4.68,6.94,4.68,11.34s-1.57,8.24-4.71,11.4c-3.14,3.16-6.91,4.74-11.31,4.74Zm-6.89-9.16c1.89,1.94,4.18,2.92,6.89,2.92s5.01-.97,6.89-2.92c1.89-1.94,2.83-4.27,2.83-6.98s-.94-5.04-2.83-6.98c-1.88-1.94-4.18-2.92-6.89-2.92s-5.01.97-6.89,2.92c-1.88,1.94-2.83,4.27-2.83,6.98s.94,5.04,2.83,6.98Z"></path>
        <path class="cls-1" d="m371.44,53.23v-31.22h6.77v4.12c2.4-3.1,5.63-4.65,9.72-4.65,3.57,0,6.65,1.15,9.22,3.45,2.57,2.3,3.86,5.35,3.86,9.16v19.14h-6.77v-17.32c0-2.51-.74-4.5-2.21-5.95-1.47-1.45-3.27-2.18-5.39-2.18-2.47,0-4.5.89-6.07,2.68-1.57,1.79-2.36,4.02-2.36,6.69v16.08h-6.77Z"></path>
        <path class="cls-1" d="m422.1,53.7c-4.48,0-8.27-1.58-11.37-4.74-3.1-3.16-4.65-6.96-4.65-11.4s1.57-8.28,4.71-11.4c3.14-3.12,6.91-4.68,11.31-4.68,3.89,0,7.31,1.27,10.28,3.8,2.96,2.53,4.78,5.7,5.45,9.51.39,1.85.41,3.61.06,5.3h-25.09c.39,2.32,1.45,4.15,3.18,5.51,1.73,1.35,3.77,2.03,6.13,2.03,3.61,0,6.5-1.28,8.66-3.83l6.01,1.59c-1.26,2.51-3.26,4.53-6.01,6.04-2.75,1.51-5.64,2.27-8.66,2.27Zm-9.31-18.85h18.44c-.39-2.08-1.42-3.83-3.09-5.24-1.67-1.41-3.7-2.12-6.1-2.12s-4.44.72-6.13,2.15c-1.69,1.43-2.73,3.17-3.12,5.21Z"></path>
        <path class="cls-1" d="m447.78,65.6l5.07-12.55-13.02-31.04h7.13l9.25,23.44,8.78-23.44h7.13l-17.38,43.59h-6.95Z"></path>
      </g>
    </g>
  </g>
</svg>
